<?xml version="1.0" standalone="no"?>
<!DOCTYPE svg PUBLIC "-//W3C//DTD SVG 20010904//EN"
 "http://www.w3.org/TR/2001/REC-SVG-20010904/DTD/svg10.dtd">
<svg version="1.0" xmlns="http://www.w3.org/2000/svg"
 width="512.000000pt" height="512.000000pt" viewBox="0 0 512.000000 512.000000"
 preserveAspectRatio="xMidYMid meet">
<metadata>
Created by potrace 1.14, written by Peter Selinger 2001-2017
</metadata>
<g transform="translate(0.000000,512.000000) scale(0.100000,-0.100000)"
fill="#000000" stroke="none">
<path d="M0 2560 l0 -2110 2560 0 2560 0 0 230 0 230 -35 0 c-19 0 -36 3 -36
8 -1 4 -2 37 -3 75 l-2 67 38 0 38 0 0 74 0 75 -37 3 -37 3 -1 73 c-2 77 -1
78 58 73 16 -2 17 83 17 1653 l0 1656 -2560 0 -2560 0 0 -2110z"/>
</g>
</svg>
